HIERARCHY
ROOT ui
{
	 OFFSET 0 0 0
	 CHANNELS 3 XPosition YPosition Z Position
	 EndSite
	 {
	 OFFSET 0 -1 0
	 }
}
ROOT li
{
	 OFFSET 0 0 0
	 CHANNELS 3 XPosition YPosition Z Position
	 EndSite
	 {
	 OFFSET 0 -1 0
	 }
}
ROOT ul
{
	 OFFSET 0 0 0
	 CHANNELS 3 XPosition YPosition Z Position
	 EndSite
	 {
	 OFFSET 0 -1 0
	 }
}
ROOT ll
{
	 OFFSET 0 0 0
	 CHANNELS 3 XPosition YPosition Z Position
	 EndSite
	 {
	 OFFSET 0 -1 0
	 }
}
ROOT tt
{
	 OFFSET 0 0 0
	 CHANNELS 3 XPosition YPosition Z Position
	 EndSite
	 {
	 OFFSET 0 -1 0
	 }
}
ROOT tb
{
	 OFFSET 0 0 0
	 CHANNELS 3 XPosition YPosition Z Position
	 EndSite
	 {
	 OFFSET 0 -1 0
	 }
}
ROOT td
{
	 OFFSET 0 0 0
	 CHANNELS 3 XPosition YPosition Z Position
	 EndSite
	 {
	 OFFSET 0 -1 0
	 }
}
ROOT v
{
	 OFFSET 0 0 0
	 CHANNELS 3 XPosition YPosition Z Position
	 EndSite
	 {
	 OFFSET 0 -1 0
	 }
}
ROOT bn
{
	 OFFSET 0 0 0
	 CHANNELS 3 XPosition YPosition Z Position
	 EndSite
	 {
	 OFFSET 0 -1 0
	 }
}
MOTION
Frames: 29
Frame Time: 0.002
5.099390149116516E-4	-6.183599829673767E-4	0		0.47425247192382813	-2.33160693359375	0		-1.140701416015625	-0.0018917980194091796	0		-0.84665771484375	-2.259604736328125	0		1.6130323486328124	-0.42697543334960936	0		3.18690966796875	0.04751792907714844	0		4.63948681640625	0.12114825439453125	0		5.58112255859375	0.17006553649902345	0		-0.15663624572753906	5.93921533203125	0		
-0.08034286499023438	0.006265625953674316	0		0.4514118041992187	-2.326521240234375	0		-1.1396727294921876	-0.002968214988708496	0		-0.8076640625	-2.263205078125	0		1.5871304931640624	-0.43334515380859373	0		3.180739990234375	0.038495738983154296	0		4.6384248046875	0.12068357849121093	0		5.58605078125	0.15409486389160157	0		-0.27548501586914065	5.92665185546875	0		
0.009645563125610351	0.005132575988769531	0		0.45748611450195314	-2.322953125	0		-1.114687744140625	-0.0044418292045593265	0		-0.8256655883789062	-2.26277294921875	0		1.5703790283203125	-0.4288996887207031	0		3.197070556640625	0.06006619644165039	0		4.64549609375	0.1300497283935547	0		5.58560595703125	0.1884755859375	0		-0.3121567077636719	5.922576171875	0		
-0.06827787780761718	0.014923998832702637	0		0.4593863220214844	-2.323302001953125	0		-1.125599609375	0.004743698120117187	0		-0.7878464965820312	-2.26727197265625	0		1.623654541015625	-0.41865509033203124	0		3.164661865234375	0.04343688583374023	0		4.64149169921875	0.13955859375	0		5.58337109375	0.17956492614746095	0		-0.29482086181640627	5.9175810546875	0		
-6.518419981002807E-4	0.0022767179012298583	0		0.48403005981445313	-2.33101220703125	0		-1.1328934326171876	-0.0030981109142303466	0		-0.8468684692382813	-2.25310791015625	0		1.62058056640625	-0.4224507751464844	0		3.19465966796875	0.05571959686279297	0		4.6381591796875	0.13498410034179686	0		5.58105908203125	0.16877877807617186	0		-0.29639288330078123	5.9169423828125	0		
-0.0689296417236328	0.0028951959609985352	0		0.483601318359375	-2.33328515625	0		-1.1362257080078124	-0.00695556116104126	0		-0.8004935913085938	-2.266642333984375	0		1.55543212890625	-0.42326190185546875	0		3.2002392578125	0.04936851119995117	0		4.6388212890625	0.1362629699707031	0		5.58161474609375	0.17154486083984374	0		-0.29793533325195315	5.9163388671875	0		
6.613569855690002E-4	0.001328842043876648	0		0.4580653076171875	-2.331146728515625	0		-1.1356226806640626	-0.00781672477722168	0		-0.8251632690429688	-2.271974853515625	0		1.559245361328125	-0.4192146606445312	0		3.186965087890625	0.05926642990112305	0		4.637341796875	0.13548463439941405	0		5.57789697265625	0.18812059020996094	0		-0.2701097106933594	5.93631640625	0		
-0.0727634735107422	0.007044637203216552	0		0.4903594055175781	-2.328896728515625	0		-1.1270233154296876	-0.0017342109680175781	0		-0.819869873046875	-2.268728759765625	0		1.5657791748046874	-0.42521923828125	0		3.20718701171875	0.04357944869995117	0		4.64390966796875	0.14448414611816407	0		5.585416015625	0.19021719360351563	0		-0.28572711181640625	5.92502197265625	0		
0.0086463565826416	0.007414910793304443	0		0.46650473022460937	-2.324760009765625	0		-1.1266318359375	-0.002454263925552368	0		-0.8208355102539062	-2.2713271484375	0		1.62335009765625	-0.422000732421875	0		3.19677734375	0.05831011962890625	0		4.6332587890625	0.14564279174804687	0		5.58572802734375	0.1923655242919922	0		-0.3012590026855469	5.91376416015625	0		
0.0018523830175399781	1.7366400361061097E-4	0		0.48829803466796873	-2.334294189453125	0		-1.134423095703125	-0.009982501029968262	0		-0.7958788452148438	-2.26924951171875	0		1.560809814453125	-0.4189834899902344	0		3.19707275390625	0.05881189727783203	0		4.65143994140625	0.14026028442382812	0		5.5931015625	0.19229916381835938	0		-0.3035052185058594	5.9143505859375	0		
0.0021059720516204833	-1.3708299398422242E-4	0		0.46213119506835937	-2.33209716796875	0		-1.1341669921875	-0.010559755325317383	0		-0.8059750366210937	-2.261587646484375	0		1.740938232421875	-0.43555331420898435	0		3.162243408203125	0.054761760711669924	0		4.63375	0.14730204772949218	0		5.5790556640625	0.19622476196289063	0		-0.30365347290039063	5.91295361328125	0		
0.007252573013305664	-0.005483399868011474	0		0.48979302978515626	-2.334666748046875	0		-1.13394580078125	-0.011065792083740235	0		-0.8204814453125	-2.274809814453125	0		1.55840869140625	-0.42284274291992185	0		3.217287109375	0.043339550018310545	0		4.63882373046875	0.139898193359375	0		5.58636669921875	0.19742607116699218	0		-0.2885238037109375	5.92038525390625	0		
0.01760066032409668	0.004134359836578369	0		0.4695328369140625	-2.325524658203125	0		-1.1097403564453125	-0.011843367576599121	0		-0.7778436279296875	-2.272789306640625	0		1.6306236572265624	-0.42783657836914063	0		3.19689990234375	0.07295114135742188	0		4.63900537109375	0.14046005249023438	0		5.5894560546875	0.21066156005859374	0		-0.2903273010253906	5.92110888671875	0		
0.009841490745544433	0.00604319715499878	0		0.4970481262207031	-2.32804296875	0		-1.125426025390625	-0.004984199047088623	0		-0.826173583984375	-2.26341845703125	0		1.562016845703125	-0.418838623046875	0		3.1788505859375	0.055458789825439454	0		4.6453095703125	0.14883433532714843	0		5.5867001953125	0.19965602111816405	0		-0.3260171203613281	5.91735400390625	0		
0.015006009101867676	8.021659851074218E-4	0		0.46448568725585937	-2.332697509765625	0		-1.1292454833984376	-0.009230737686157226	0		-0.782890380859375	-2.27928515625	0		1.6222110595703125	-0.42566796875	0		3.16716455078125	0.06181961441040039	0		4.63452880859375	0.14935101318359376	0		5.58688037109375	0.20045195007324218	0		-0.30653619384765624	5.91186474609375	0		
0.003251197099685669	-0.0011715049743652344	0		0.49193515014648437	-2.335171875	0		-1.133013916015625	-0.012417237281799316	0		-0.8312997436523437	-2.27081787109375	0		1.55649951171875	-0.42674960327148437	0		3.20331640625	0.053461936950683596	0		4.63170458984375	0.1436647033691406	0		5.58708447265625	0.20105290222167968	0		-0.30679132080078125	5.91169580078125	0		
0.0035702879428863524	-0.0012839089632034303	0		0.4654363098144531	-2.332880126953125	0		-1.132694091796875	-0.012603599548339844	0		-0.781947998046875	-2.27966015625	0		1.6198126220703124	-0.42963018798828123	0		3.18893701171875	0.07576274108886719	0		4.6350966796875	0.1498115997314453	0		5.58731884765625	0.20147579956054687	0		-0.2927066345214844	5.922369140625	0		
0.012930916786193849	-0.00249334192276001	0		0.4699814758300781	-2.328001220703125	0		-1.124222900390625	-0.005849501132965088	0		-0.8154015502929688	-2.274312744140625	0		1.5633494873046876	-0.4188623046875	0		3.209907958984375	0.04652954483032227	0		4.64646435546875	0.14977618408203125	0		5.58759130859375	0.20174043273925782	0		-0.277453125	5.93206298828125	0		
0.011479607582092285	0.005472590923309326	0		0.49744744873046876	-2.33042138671875	0		-1.1237841796875	-0.005938319206237793	0		-0.7888406982421875	-2.26975146484375	0		1.6237103271484374	-0.425708251953125	0		3.20362060546875	0.066641845703125	0		4.635900390625	0.14998072814941407	0		5.58790673828125	0.2018687744140625	0		-0.29229672241210936	5.9222021484375	0		
0.008931803703308105	0.0014759010076522826	0		0.49593310546875	-2.333427734375	0		-1.127331787109375	-0.009930919647216797	0		-0.8273109130859375	-2.26926123046875	0		1.621166259765625	-0.42969125366210936	0		3.200044921875	0.0606861572265625	0		4.64251513671875	0.1578986358642578	0		5.58826953125	0.2018830108642578	0		-0.17270037841796876	5.93152734375	0		
0.01039923095703125	-0.006555038928985596	0		0.4944710693359375	-2.33542041015625	0		-1.0938125	-0.01439568328857422	0		-0.7568480224609375	-2.2772353515625	0		1.612783447265625	-0.42659429931640624	0		3.16963916015625	0.0620771598815918	0		4.64187353515625	0.1418718719482422	0		5.5886806640625	0.20180278015136718	0		-0.30538177490234375	5.91133837890625	0		
0.006115869998931885	-0.0014868069887161255	0		0.4681094970703125	-2.3330576171875	0		-1.1261070556640624	-0.009923944473266602	0		-0.8152330932617188	-2.276411376953125	0		1.555360595703125	-0.4308234558105469	0		3.20605078125	0.04453088760375976	0		4.6425234375	0.14179417419433593	0		5.58493017578125	0.21389532470703124	0		-0.15523678588867187	5.93929248046875	0		
0.018857290267944336	3.6395400762557985E-4	0		0.4998004455566406	-2.330481201171875	0		-1.1094764404296875	-0.01609719657897949	0		-0.8105242919921875	-2.2724287109375	0		1.5662283935546875	-0.41898757934570313	0		3.205235595703125	0.07848574066162109	0		4.63835302734375	0.14975433349609374	0		5.5896474609375	0.20141787719726562	0		-0.287653076171875	5.91914697265625	0		
0.022675411224365234	0.00335282301902771	0		0.47555194091796876	-2.326122802734375	0		-1.116519775390625	-0.0029171550273895262	0		-0.809828369140625	-2.272368408203125	0		1.629956787109375	-0.4218819274902344	0		3.1776865234375	0.0547916374206543	0		4.6550234375	0.14140003967285156	0		5.59019775390625	0.20113333129882813	0		-0.30277398681640627	5.91141015625	0		
0.008437150955200196	-0.0013951879739761352	0		0.4991808166503906	-2.333416748046875	0		-1.127827880859375	-0.012656607627868653	0		-0.787086181640625	-2.27159326171875	0		1.6216024169921874	-0.43378240966796877	0		3.1886142578125	0.061558704376220706	0		4.65097021484375	0.1493104248046875	0		5.58785302734375	0.18705404663085937	0		-0.30168701171875	5.9114677734375	0		
0.009305397033691406	-0.0013390430212020874	0		0.47093441772460937	-2.332982177734375	0		-1.126960205078125	-0.01254322910308838	0		-0.7784721069335937	-2.281607421875	0		1.616546875	-0.42672479248046874	0		3.1943740234375	0.053385929107666014	0		4.64084716796875	0.14928564453125	0		5.5913984375	0.20041627502441406	0		-0.28539724731445315	5.92033056640625	0		
0.015125381469726562	-0.006341947078704834	0		0.4986640319824219	-2.335318115234375	0		-1.126070556640625	-0.012413430213928222	0		-0.8136776123046875	-2.27899462890625	0		1.5593492431640625	-0.43093798828125	0		3.195574462890625	0.07527246856689453	0		4.6466337890625	0.14102461242675782	0		5.59202734375	0.20000192260742186	0		-0.2690245056152344	5.93120263671875	0		
-0.05879170227050781	0.007783424854278564	0		0.4765185546875	-2.327949951171875	0		-1.1052215576171875	-0.015550005912780761	0		-0.8108782348632813	-2.275898193359375	0		1.6302943115234374	-0.4259367980957031	0		3.186067138671875	0.04630075836181641	0		4.6426484375	0.14889247131347655	0		5.592658203125	0.19956597900390624	0		-0.14963380432128906	5.9406396484375	0		
0.0239957275390625	7.177240252494812E-4	0		0.5042219543457032	-2.330275146484375	0		-1.1162010498046875	-0.005228405952453614	0		-0.8101408081054687	-2.275762939453125	0		1.5681817626953125	-0.42306707763671875	0		3.206327880859375	0.07291628265380859	0		4.638650390625	0.15675688171386717	0		5.5932783203125	0.19911907958984376	0		-0.3299005126953125	5.9052861328125	0		
